<?xml version="1.0" encoding="UTF-8"?>
<svg id="b" data-name="Ebene 2" xmlns="http://www.w3.org/2000/svg" viewBox="0 0 353.19 220.73">
  <g id="c" data-name="Ebene 1">
    <g>
      <g>
        <g>
          <path d="M295.9,73.59l-17.64,66.6c-3.32,15.14-17.05,26.15-32.49,26.15H0l4.06-18.46h241.71c6.89,0,12.98-4.92,14.46-11.63l16.78-62.66h18.89Z"/>
          <path d="M324.45,73.59l-18.87,72.08c-6.15,27.94-31.38,48.24-60,48.24H87.52l4.06-18.46h154c20,0,37.66-14.21,41.97-33.78l17.94-68.08h18.95Z" fill="#117e91"/>
          <path d="M353.19,73.59l-20.65,80.26c-8.55,38.77-43.57,66.89-83.26,66.89H.17l4.06-18.46h245.04c31.08,0,58.52-22.03,65.23-52.43l19.79-76.26h18.89Z"/>
        </g>
        <g>
          <path d="M2.13,193.65c-.19,0-.33-.06-.42-.18-.09-.12-.12-.27-.09-.46l3.56-16.66c.03-.19.12-.34.27-.46.15-.12.3-.18.47-.18h2.92c.17,0,.31.06.41.18s.14.27.1.46l-3.56,16.66c-.04.19-.12.34-.27.46-.15.12-.3.18-.47.18h-2.92Z" fill="#117e91"/>
          <path d="M9.58,193.65c-.17,0-.31-.06-.41-.18-.1-.12-.14-.27-.1-.46l3.54-16.66c.03-.19.12-.34.27-.46s.31-.18.5-.18h2.31c.26,0,.44.06.54.17s.16.21.18.29l4.59,10.76,2.25-10.58c.03-.19.12-.34.27-.46s.31-.18.5-.18h2.59c.19,0,.33.06.42.18s.12.27.09.46l-3.54,16.66c-.03.17-.12.32-.27.45s-.3.19-.47.19h-2.33c-.26,0-.43-.06-.53-.18-.09-.12-.16-.21-.19-.28l-4.64-10.46-2.18,10.28c-.03.19-.12.34-.27.46-.15.12-.31.18-.5.18h-2.61Z" fill="#117e91"/>
          <path d="M27.36,193.65c-.17,0-.31-.06-.41-.18-.1-.12-.14-.27-.1-.46l3.54-16.66c.03-.19.13-.34.28-.46.15-.12.32-.18.49-.18h11.45c.19,0,.33.06.42.18s.12.27.09.46l-.49,2.18c-.04.19-.12.34-.26.46-.14.12-.3.18-.49.18h-8.07l-.95,4.33h7.56c.19,0,.33.06.42.18.09.12.12.27.09.46l-.46,2.18c-.04.17-.12.32-.27.44s-.31.18-.5.18h-7.56l-1.31,6.07c-.03.19-.12.34-.26.46-.14.12-.3.18-.49.18h-2.74Z" fill="#117e91"/>
          <path d="M42.84,193.65c-.19,0-.33-.06-.41-.18-.09-.12-.11-.27-.08-.46l3.51-16.66c.03-.19.13-.34.28-.46.15-.12.32-.18.51-.18h6.79c2.13,0,3.71.49,4.73,1.47,1.02.98,1.33,2.4.93,4.24-.26,1.25-.77,2.29-1.55,3.13-.78.84-1.71,1.46-2.81,1.87l2.25,6.41c.02.05.03.09.04.13s0,.08-.01.15c-.03.14-.12.26-.24.37-.13.11-.27.17-.42.17h-2.84c-.31,0-.52-.08-.63-.24-.11-.16-.19-.31-.24-.45l-1.87-5.87h-3.1l-1.28,5.92c-.03.19-.12.34-.27.46-.15.12-.31.18-.5.18h-2.79ZM48.35,183.84h3.31c.92,0,1.66-.21,2.2-.64s.91-1.03,1.08-1.79c.15-.77.06-1.38-.29-1.82-.35-.44-1-.67-1.93-.67h-3.31l-1.05,4.92Z" fill="#117e91"/>
          <path d="M57.78,193.65c-.21,0-.35-.08-.42-.26s-.06-.34.04-.51l9.58-16.48c.1-.19.24-.35.41-.49.17-.14.4-.21.69-.21h3.43c.27,0,.47.07.59.21.12.14.19.3.21.49l2.61,16.48c.03.24,0,.43-.13.56-.12.14-.27.21-.46.21h-2.61c-.26,0-.44-.06-.54-.18-.1-.12-.17-.26-.21-.41l-.51-2.79h-7.23l-1.72,2.87c-.09.12-.2.24-.33.35-.14.11-.33.17-.56.17h-2.84ZM64.9,186.97h5.3l-1.1-7.38-4.2,7.38Z" fill="#117e91"/>
        </g>
        <g>
          <path d="M84.7,127.73c-.84,0-1.46-.24-1.85-.71-.4-.48-.57-1.05-.51-1.74l1.34-51.02c0-.47.18-.89.55-1.26.37-.37.82-.55,1.34-.55h8.06c.74,0,1.26.16,1.58.47.31.32.45.79.4,1.42l-1.03,32.7,10.66-20.3c.26-.42.63-.87,1.11-1.34.48-.47,1.11-.71,1.9-.71h4.97c.84,0,1.39.24,1.66.71.26.48.42.92.48,1.34l2.21,20.69,12.95-33.33c.42-1.11,1.31-1.66,2.68-1.66h8.61c.63,0,1.04.21,1.22.63.18.42.17.87-.04,1.34l-19.27,50.87c-.26.68-.7,1.26-1.3,1.74-.6.47-1.33.71-2.17.71h-6.56c-.9,0-1.51-.22-1.86-.67-.34-.45-.57-.91-.67-1.38l-3.79-24.41-12.87,24.41c-.26.47-.66.94-1.19,1.38-.53.45-1.21.67-2.05.67h-6.56Z" fill="#1d1d1b"/>
          <path d="M153.97,128.52c-3.95,0-7.27-.65-9.95-1.93-2.69-1.29-4.58-3.15-5.69-5.57-1.11-2.42-1.32-5.26-.63-8.53.53-2.32,1.44-4.37,2.73-6.16,1.29-1.79,2.9-3.41,4.82-4.86,1.92-1.45,4.09-2.78,6.52-3.99-1.69-2.31-2.78-4.42-3.28-6.32-.5-1.9-.54-3.84-.12-5.84.53-2.42,1.63-4.66,3.32-6.71,1.69-2.05,3.9-3.72,6.64-5.02,2.74-1.29,5.9-1.93,9.48-1.93,3.37,0,6.11.62,8.21,1.86,2.11,1.24,3.58,2.88,4.42,4.94.84,2.05,1,4.29.48,6.71-.48,2.16-1.37,4.09-2.69,5.8-1.32,1.71-2.98,3.25-4.97,4.62-2,1.37-4.21,2.68-6.64,3.95l8.21,10.35c.68-.9,1.59-2.13,2.73-3.71,1.13-1.58,2.28-3.61,3.44-6.08.31-.84.95-1.26,1.9-1.26h6.87c.48,0,.82.14,1.03.43.21.29.26.67.16,1.15-.21,1-.68,2.17-1.42,3.51-.74,1.34-1.62,2.75-2.64,4.23-1.03,1.48-2.13,2.92-3.32,4.35-1.19,1.42-2.38,2.74-3.59,3.95l6.79,8.69c.31.37.42.76.31,1.19-.05.42-.25.76-.59,1.03s-.75.4-1.22.4h-9.08c-.53,0-.94-.09-1.22-.28-.29-.18-.54-.36-.75-.51l-3.08-3.79c-2.47,1.74-5.12,3.07-7.94,3.99-2.82.92-5.88,1.38-9.2,1.38ZM155.94,119.43c1.68,0,3.37-.28,5.05-.83,1.69-.55,3.32-1.46,4.9-2.72l-9.24-11.45c-1.79.9-3.41,1.96-4.86,3.2-1.45,1.24-2.36,2.73-2.73,4.46-.31,1.53-.18,2.84.4,3.95.58,1.11,1.45,1.95,2.61,2.53,1.16.58,2.45.87,3.87.87ZM161.87,92.98c1.47-.74,2.82-1.46,4.03-2.17s2.24-1.5,3.08-2.37c.84-.87,1.39-1.85,1.66-2.96.31-1.63.04-2.92-.83-3.87-.87-.95-2.15-1.42-3.83-1.42-1.53,0-2.98.48-4.35,1.42s-2.21,2.24-2.53,3.87c-.21,1.05-.12,2.15.28,3.28.39,1.13,1.22,2.54,2.49,4.23Z" fill="#1d1d1b"/>
          <path d="M212.25,128.52c-5.06,0-9.2-.73-12.44-2.17-3.24-1.45-5.56-3.37-6.95-5.77-1.39-2.39-1.88-4.94-1.46-7.62.05-.42.25-.8.59-1.14s.75-.51,1.22-.51h8.61c.68,0,1.19.15,1.5.43.31.29.6.65.87,1.07.16.9.57,1.76,1.22,2.61.66.84,1.62,1.54,2.88,2.09,1.27.55,2.87.83,4.82.83,3.47,0,6.21-.55,8.21-1.66,2-1.11,3.21-2.61,3.63-4.5.31-1.37.11-2.47-.63-3.32-.74-.84-2.04-1.6-3.91-2.29-1.87-.68-4.33-1.42-7.39-2.21-3.79-.84-6.9-2.02-9.32-3.52-2.42-1.5-4.09-3.38-5.02-5.65-.92-2.27-1.04-4.98-.35-8.14,1-4.74,3.53-8.49,7.58-11.25,4.06-2.76,9.32-4.15,15.8-4.15,3.37,0,6.33.47,8.89,1.42s4.69,2.19,6.4,3.71c1.71,1.53,2.93,3.16,3.67,4.9.74,1.74.97,3.42.71,5.06-.05.42-.25.8-.59,1.14-.34.34-.75.51-1.22.51h-9.01c-.53,0-.97-.1-1.34-.31-.37-.21-.66-.58-.87-1.11,0-1.37-.67-2.57-2.02-3.59-1.34-1.03-3.15-1.54-5.41-1.54-2.58,0-4.77.48-6.56,1.42s-2.92,2.39-3.4,4.34c-.26,1.27-.09,2.33.51,3.2.6.87,1.74,1.63,3.4,2.29,1.66.66,3.93,1.39,6.83,2.17,4.43.95,7.93,2.16,10.51,3.63,2.58,1.48,4.33,3.32,5.25,5.53.92,2.21,1.04,4.9.36,8.06-1.11,5.26-3.84,9.25-8.21,11.97-4.37,2.71-10.16,4.07-17.38,4.07Z" fill="#1d1d1b"/>
        </g>
      </g>
      <g id="d" data-name="Signal">
        <path d="M63.91,122.94H14.78c-5.5,0-9.89-4.46-9.89-9.89v-58.14c0-2.63,1.04-5.13,2.93-7.02L48,7.7c1.83-1.83,4.28-2.87,6.9-2.87h73.29c2.63,0,5.13,1.04,7.02,2.93l40.13,40.13c1.89,1.89,2.93,4.34,2.93,7.02l-.05,9.01h4.89l.05-9.01c0-3.97-1.53-7.7-4.34-10.44L138.7,4.34c-2.81-2.81-6.54-4.34-10.44-4.34H54.97c-3.91,0-7.57,1.53-10.38,4.28L4.34,44.46c-2.81,2.81-4.34,6.54-4.34,10.44v58.14c0,8.18,6.66,14.78,14.78,14.78h48.07l1.07-4.89Z" fill="#020303"/>
        <circle cx="47.94" cy="42.69" r="14.6" fill="#1d1d1b"/>
        <circle cx="135.16" cy="42.69" r="14.6" fill="#1d1d1b"/>
        <path d="M96.93,28.1c-8.06,0-14.6,6.53-14.6,14.6s6.54,14.6,14.6,14.6,14.6-6.54,14.6-14.6-6.54-14.6-14.6-14.6ZM96.93,52.51c-5.42,0-9.81-4.39-9.81-9.81s4.39-9.81,9.81-9.81,9.81,4.39,9.81,9.81-4.39,9.81-9.81,9.81Z" fill="#010101"/>
        <path d="M47.94,77.57c-8.06,0-14.6,6.53-14.6,14.6s6.54,14.6,14.6,14.6,14.6-6.54,14.6-14.6-6.53-14.6-14.6-14.6ZM47.94,102.04c-5.45,0-9.87-4.42-9.87-9.87s4.42-9.87,9.87-9.87,9.87,4.42,9.87,9.87-4.42,9.87-9.87,9.87Z" fill="#010101"/>
      </g>
    </g>
  </g>
</svg>